<svg xmlns="http://www.w3.org/2000/svg" viewBox="0 0 64 64" width="64" height="64">
  <!-- Secret Skeleton – comic skeleton face with glowing eyes -->
  <rect width="64" height="64" fill="#f0f0f0" rx="8"/>
  <!-- Skull oval -->
  <ellipse cx="32" cy="28" rx="20" ry="22" fill="white" stroke="#1a1a1a" stroke-width="1.5"/>
  <!-- Jaw -->
  <rect x="18" y="40" width="28" height="16" rx="3" fill="white" stroke="#1a1a1a" stroke-width="1.5"/>
  <!-- Eye sockets -->
  <ellipse cx="24" cy="24" rx="6" ry="7" fill="#1a1a1a"/>
  <ellipse cx="40" cy="24" rx="6" ry="7" fill="#1a1a1a"/>
  <!-- Eye glow (pulsing) -->
  <ellipse cx="24" cy="24" rx="4" ry="5" fill="#8800aa" opacity="0">
    <animate attributeName="opacity" values="0;0.6;0" dur="3s" repeatCount="indefinite"/>
  </ellipse>
  <ellipse cx="40" cy="24" rx="4" ry="5" fill="#8800aa" opacity="0">
    <animate attributeName="opacity" values="0;0.6;0" dur="3s" begin="0.5s" repeatCount="indefinite"/>
  </ellipse>
  <!-- Eye shine -->
  <circle cx="25" cy="22" r="1.5" fill="white"/>
  <circle cx="41" cy="22" r="1.5" fill="white"/>
  <!-- Nose hole -->
  <ellipse cx="32" cy="34" rx="3" ry="2" fill="#1a1a1a"/>
  <!-- Teeth (chattering - alternating) -->
  <rect x="20" y="40" width="5" height="7" rx="1" fill="#1a1a1a"/>
  <rect x="27" y="40" width="5" height="7" rx="1" fill="#1a1a1a"/>
  <rect x="34" y="40" width="5" height="7" rx="1" fill="#1a1a1a"/>
  <!-- Crack line for character -->
  <path d="M32,6 Q30,14 33,20" stroke="#cccccc" stroke-width="1" fill="none"/>
  <!-- Floating sparkle dots (spooky) -->
  <circle cx="6"  cy="6"  r="1.5" fill="#8800aa" opacity="0">
    <animate attributeName="opacity" values="0;0.5;0" dur="2s" repeatCount="indefinite"/>
  </circle>
  <circle cx="58" cy="10" r="1.2" fill="#aa00cc" opacity="0">
    <animate attributeName="opacity" values="0;0.4;0" dur="2.5s" begin="0.8s" repeatCount="indefinite"/>
  </circle>
  <circle cx="8"  cy="56" r="1"   fill="#8800aa" opacity="0">
    <animate attributeName="opacity" values="0;0.5;0" dur="3s" begin="1.5s" repeatCount="indefinite"/>
  </circle>
</svg>
